<?xml version="1.0" encoding="UTF-8" standalone="no"?>
<!-- Uploaded to: SVG Repo, www.svgrepo.com, Generator: SVG Repo Mixer Tools -->

<svg
   width="666.66663"
   height="375.37732"
   viewBox="0 0 19.999999 11.26132"
   fill="none"
   version="1.1"
   id="svg1"
   xmlns="http://www.w3.org/2000/svg"
   xmlns:svg="http://www.w3.org/2000/svg">
  <defs
     id="defs1" />
  <g
     id="Edit / Add_Row"
     transform="translate(-2,-6.73868)">
    <path
       style="color:#000000;fill:#8f9894;fill-opacity:1;stroke-linecap:round;stroke-linejoin:round;-inkscape-stroke:none"
       d="m 5,10 c -1.6450051,0 -3,1.354995 -3,3 v 2 c 0,1.645005 1.3549949,3 3,3 h 14 c 1.64499,0 3,-1.354977 3,-3 v -1 a 1,1 0 0 0 -1,-1 1,1 0 0 0 -1,1 v 1 c 0,0.564175 -0.435852,1 -1,1 H 5 C 4.4358073,16 4,15.564193 4,15 v -2 c 0,-0.564193 0.4358073,-1 1,-1 h 6 a 1,1 0 0 0 1,-1 1,1 0 0 0 -1,-1 z"
       id="path8" />
    <path
       style="color:#000000;fill:#d4212b;fill-opacity:1;stroke-linecap:round;stroke-linejoin:round;-inkscape-stroke:none"
       d="m 19.588427,7.0315729 a 1,1 0 0 0 -1.414213,0 L 16.76,8.4457864 15.345786,7.0315729 a 1,1 0 0 0 -1.414213,0 1,1 0 0 0 0,1.4142135 L 15.345786,9.86 13.931573,11.274214 a 1,1 0 0 0 0,1.414213 1,1 0 0 0 1.414213,0 L 16.76,11.274214 l 1.414214,1.414213 a 1,1 0 0 0 1.414213,0 1,1 0 0 0 0,-1.414213 L 18.174214,9.86 19.588427,8.4457864 a 1,1 0 0 0 0,-1.4142135 z"
       id="Vector" />
  </g>
</svg>
